HIERARCHY
ROOT hip
{
	OFFSET 0.000000 0.000000 0.000000 
	CHANNELS 6 Xposition Yposition Zposition Xrotation Zrotation Yrotation
	JOINT abdomen
	{
		OFFSET 0.000000 3.402643 0.000000 
		CHANNELS 3 Xrotation Zrotation Yrotation
		JOINT chest
		{
			OFFSET 0.000000 8.438565 -0.680529 
			CHANNELS 3 Xrotation Zrotation Yrotation
			JOINT neck
			{
				OFFSET 0.000000 10.207942 -0.272212 
				CHANNELS 3 Xrotation Zrotation Yrotation
				JOINT head
				{
					OFFSET 0.000000 3.130431 0.000000 
					CHANNELS 3 Xrotation Zrotation Yrotation
					End Site
					{
						OFFSET 0.000000 3.130435 0.000000 
					}
				}
			}
			JOINT lCollar
			{
				OFFSET 3.470700 6.669187 -0.816635 
				CHANNELS 3 Yrotation Zrotation Xrotation
				JOINT lShldr
				{
					OFFSET 3.198488 0.000000 0.000000 
					CHANNELS 3 Zrotation Yrotation Xrotation
					JOINT lForeArm
					{
						OFFSET 10.139888 0.000000 0.000000 
						CHANNELS 3 Yrotation Zrotation Xrotation
						JOINT lHand
						{
							OFFSET 8.370511 0.000000 0.000000 
							CHANNELS 3 Zrotation Yrotation Xrotation
							End Site
							{
								OFFSET 4.083176 0.000000 0.000000 
							}
						}
					}
				}
			}
			JOINT rCollar
			{
				OFFSET -3.470700 6.669187 -0.816635 
				CHANNELS 3 Yrotation Zrotation Xrotation
				JOINT rShldr
				{
					OFFSET -3.198488 0.000000 0.000000 
					CHANNELS 3 Zrotation Yrotation Xrotation
					JOINT rForeArm
					{
						OFFSET -10.139888 0.000000 0.000000 
						CHANNELS 3 Yrotation Zrotation Xrotation
						JOINT rHand
						{
							OFFSET -8.370511 0.000000 0.000000 
							CHANNELS 3 Zrotation Yrotation Xrotation
							End Site
							{
								OFFSET -4.083176 0.000000 0.000000 
							}
						}
					}
				}
			}
		}
	}
	JOINT lThigh
	{
		OFFSET 5.308129 -1.633274 1.361059 
		CHANNELS 3 Xrotation Zrotation Yrotation
		JOINT lShin
		{
			OFFSET -2.041588 -20.007561 0.000000 
			CHANNELS 3 Xrotation Zrotation Yrotation
			JOINT lFoot
			{
				OFFSET 0.000000 -19.190928 -1.224953 
				CHANNELS 3 Xrotation Yrotation Zrotation
				End Site
				{
					OFFSET 0.000000 -2.449906 4.627600 
				}
			}
		}
	}
	JOINT rThigh
	{
		OFFSET -5.308129 -1.633274 1.361059 
		CHANNELS 3 Xrotation Zrotation Yrotation
		JOINT rShin
		{
			OFFSET 2.041588 -20.007561 0.000000 
			CHANNELS 3 Xrotation Zrotation Yrotation
			JOINT rFoot
			{
				OFFSET 0.000000 -19.190928 -1.224953 
				CHANNELS 3 Xrotation Yrotation Zrotation
				End Site
				{
					OFFSET 0.000000 -2.449906 4.627600 
				}
			}
		}
	}
}
MOTION
Frames: 15
Frame Time: 0.033333
-16.799482 46.815998 25.724030 6.609509 -2.803538 -131.535736 0.000000 0.000000 0.000000 -0.773080 3.681306 -3.321022 1.252772 2.143854 -1.908049 4.716702 0.399470 0.441610 -6.325273 4.179422 0.271902 -72.510323 5.728045 -4.234510 -88.734192 2.310455 9.276016 -0.578003 -4.450880 -3.343438 3.800276 17.993095 -1.144558 57.127281 -21.656506 3.041337 90.016281 -3.028996 23.139877 -0.917926 -7.965304 -3.533919 -2.811878 16.310595 7.033691 30.631475 3.503928 -6.894927 -20.074354 2.241554 -12.665529 -5.678971 -5.824076 -6.880327 32.950653 2.145755 -12.939445 -17.813068 -1.496056 9.428517 
-17.284920 46.823936 26.357021 5.464482 -2.566424 -129.386246 0.000000 0.000000 0.000000 -1.486252 2.879892 -2.633189 1.102620 1.296499 -2.764297 5.282451 1.218654 -1.310930 -5.988891 3.514349 -0.475659 -72.453667 5.739150 -0.527268 -89.187698 2.564974 10.835104 -2.205737 -5.151244 -3.204117 4.219188 16.447006 -1.695787 59.560013 -24.385216 2.011254 88.387505 -3.029092 25.231098 -0.219416 -7.512063 -3.553556 -4.208490 15.504820 7.248167 31.486076 1.862462 -6.968323 -20.855314 1.964920 -10.642225 -6.393376 -6.909690 -6.992631 32.683681 1.454414 -15.713161 -16.904049 -1.707797 11.437986 
-17.743420 46.645992 27.177519 4.568967 -3.475276 -127.660446 0.000000 0.000000 0.000000 -0.957443 1.679453 -2.069067 1.229219 -0.052939 -3.543265 7.059351 2.255041 -2.853696 -6.319488 2.452140 -0.099818 -71.547768 4.768780 0.900553 -90.197899 2.586831 10.865056 -5.119943 -5.360788 -2.976161 4.099414 14.165999 -1.018043 61.744781 -24.902817 0.903217 87.037476 -2.871220 25.046738 0.172937 -7.273291 -3.565522 -6.424741 13.512492 6.551671 33.695026 0.852020 -1.850982 -20.315203 1.862590 -10.367713 -5.877147 -8.804641 -7.646779 32.917347 0.458271 -15.873280 -18.130009 -2.072204 13.047976 
-18.079937 46.212463 28.162365 4.513533 -5.568723 -126.259979 0.000000 0.000000 0.000000 1.464897 0.488122 -2.184700 2.141144 -1.221184 -4.482048 7.548038 2.216421 -3.663841 -7.321618 1.277167 1.988793 -69.294670 1.034971 0.217863 -90.895515 2.405508 8.574963 -6.721815 -4.955995 -2.878345 3.326511 12.151641 1.370954 62.593513 -21.909964 -0.255359 86.209908 -2.633118 24.379787 1.155202 -7.498805 -3.605273 -8.393833 10.881576 5.261703 37.728233 0.656147 2.460929 -20.418375 1.857921 -10.204881 -11.188375 -12.007486 -7.671777 44.358768 -0.850900 -12.143689 -11.266853 -1.840569 16.188536 
-18.199549 45.842480 28.993055 6.720937 -9.369919 -126.686310 0.000000 0.000000 0.000000 6.406363 -0.339663 -2.098741 4.997643 -2.100610 -4.817106 5.994799 1.804770 -4.242332 -7.617424 0.025568 6.357302 -65.767509 -6.122999 -1.819381 -89.863060 2.253009 6.449432 -3.438898 -4.868289 -3.134032 2.802748 11.652110 5.961099 61.166065 -15.950083 -1.216206 85.398117 -2.504990 24.765358 0.721375 -8.013533 -3.598702 -6.259562 8.808205 4.746131 40.566296 1.550731 5.072122 -20.915657 1.949147 -10.406358 -24.118979 -13.446036 -5.384246 66.934235 -4.737842 -13.056118 2.788209 0.548459 9.875459 
-18.197662 45.755775 29.590805 12.099464 -14.307854 -129.468155 0.000000 0.000000 0.000000 13.613452 -0.284738 -1.494785 9.831934 -2.457344 -4.372818 2.644420 1.505496 -4.864106 -6.929276 -0.499263 12.898963 -61.749760 -15.616236 -5.881588 -87.334297 2.218808 5.911424 0.417182 -4.685540 -3.404642 2.377282 12.381047 12.610909 58.073917 -7.707790 -1.868456 83.847122 -2.382608 24.286734 -1.195298 -8.021392 -3.521255 -0.108122 8.294609 5.676669 41.647697 2.922521 8.809743 -20.439629 2.054448 -11.431595 -34.331211 -11.775393 -5.066813 86.814583 -6.982758 -19.190533 6.120758 -0.043704 0.733337 
-18.187016 45.806747 30.011503 18.277460 -16.498865 -132.107727 0.000000 0.000000 0.000000 19.068672 1.430649 -0.999584 14.264359 -1.293173 -3.854534 -2.978959 0.497472 -4.750391 -6.446509 0.177975 18.014685 -57.875637 -23.387934 -10.180157 -84.154480 2.258751 5.457897 3.040431 -4.730991 -3.599593 1.541570 14.769910 17.625443 53.543255 -0.978268 -2.732484 82.056831 -2.405673 24.710009 -0.686340 -7.481583 -3.532586 4.967718 10.933183 8.197798 42.615032 3.713742 8.564171 -20.793447 2.070380 -11.149499 -43.570206 -9.539859 -8.860520 101.772972 -8.614572 -23.238073 2.616965 0.000273 -0.103451 
-18.348257 45.928185 30.199511 21.603600 -15.952537 -131.096390 0.000000 0.000000 0.000000 20.221821 3.785349 -1.770793 15.941174 0.612554 -4.569902 -8.174316 0.430097 -4.407012 -7.593174 0.951178 19.257662 -56.470280 -26.800657 -12.831945 -81.356728 2.424997 6.022061 4.020762 -5.481572 -3.676619 -0.009635 17.561670 18.699299 49.113613 1.208888 -2.869660 80.132309 -2.440784 24.921196 0.155586 -7.147144 -3.564880 6.198623 13.580391 9.078256 43.254723 5.110318 6.645236 -21.611959 2.068490 -10.695259 -54.538727 -10.008909 -14.801867 111.933304 -9.423842 -22.544249 0.292129 0.001889 -1.251418 
-18.815113 46.318794 30.151686 22.760853 -14.825525 -129.009094 0.000000 0.000000 0.000000 18.794666 5.613739 -3.063566 15.616408 2.270116 -5.657133 -11.482096 1.531720 -4.339106 -9.816704 2.625817 18.280792 -60.107094 -26.231474 -14.953589 -80.629608 2.581180 7.975788 1.575620 -5.652837 -3.486200 -1.079468 18.899889 17.395613 47.057705 0.228734 -2.019005 78.278770 -2.305438 23.653240 0.060390 -7.015872 -3.560386 6.668631 14.647701 8.576002 41.774097 6.682845 6.206335 -21.354027 2.071800 -10.834400 -62.917004 -11.883672 -19.218740 116.791328 -9.787088 -18.584318 -2.500428 0.066180 -2.469198 
-19.416666 46.945747 29.894846 24.644207 -14.163688 -129.169785 0.000000 0.000000 0.000000 17.806997 7.097933 -3.527268 14.488459 3.714542 -5.559095 -12.795201 1.873141 -3.380268 -10.997155 4.757774 17.727629 -64.485283 -24.503128 -17.328583 -81.147072 2.423350 8.909492 0.179621 -6.127986 -3.373953 -1.340081 19.955885 16.465588 46.024734 -0.671470 -1.329437 77.323853 -2.318672 23.513428 0.519488 -6.753707 -3.568208 9.803625 15.907557 9.858940 38.332970 7.191225 5.305462 -20.578426 1.919702 -10.529416 -66.385292 -11.591054 -22.244678 117.884422 -9.385610 -14.308865 -3.792789 0.112272 -2.978157 
-19.976252 47.555332 29.602636 26.360790 -14.023867 -130.198730 0.000000 0.000000 0.000000 17.340916 7.975101 -3.817803 12.777892 4.616773 -5.018498 -11.969028 2.203580 -2.057038 -11.087394 5.893910 17.442402 -65.778023 -23.533859 -19.553680 -81.658165 2.026053 7.434236 1.439683 -6.160062 -3.469646 -1.574836 20.798248 16.023092 45.137241 -0.207068 -0.701607 76.755264 -2.378767 23.890015 0.150874 -6.589777 -3.549818 13.762349 16.430691 11.590956 34.360554 7.196666 5.162546 -19.376226 1.767216 -10.260221 -65.660477 -9.939660 -23.097683 116.606560 -8.427985 -9.381466 -1.918687 0.032097 -1.879224 
-20.445992 47.926819 29.350323 24.969507 -13.097745 -129.422516 0.000000 0.000000 0.000000 14.823081 7.668984 -4.891267 10.620590 4.427423 -5.157621 -12.122914 3.992308 -1.792042 -11.590791 6.388006 15.193707 -65.666565 -22.524269 -21.173470 -82.281250 1.637544 5.478500 3.316810 -5.222536 -3.616241 -1.683657 20.593649 13.667529 45.163780 -0.168146 -0.087755 76.386421 -2.450597 24.211386 -0.099732 -6.614568 -3.545549 13.727724 15.848032 11.761889 31.611727 6.411541 6.374204 -18.124216 1.576065 -9.844390 -63.841908 -9.118309 -20.618803 113.608429 -6.923746 -4.106114 2.602366 0.012656 0.449751 
-20.824654 48.026489 29.131104 22.052073 -12.149040 -126.437088 0.000000 0.000000 0.000000 11.676041 6.839321 -6.568347 8.870094 3.852008 -6.508357 -14.957091 4.701560 -2.144213 -12.627052 6.504569 12.290091 -64.514313 -22.799170 -21.984158 -82.550674 1.494973 4.384780 4.878805 -5.231195 -3.734307 -2.006201 19.399336 10.697440 46.220581 -0.627003 -0.370180 76.552330 -2.551070 24.761845 -0.100736 -6.438527 -3.543845 11.170615 15.164867 10.751015 30.726961 5.513451 5.569102 -17.939928 1.429767 -8.946969 -60.277328 -9.968272 -16.711403 108.935669 -5.312611 -0.388279 9.396616 0.330947 4.035133 
-21.145660 47.960918 28.903326 19.843481 -11.705272 -123.455025 0.000000 0.000000 0.000000 9.499670 6.213130 -7.595032 8.352284 3.385045 -7.803949 -19.545689 4.212737 -2.680199 -12.976094 6.412228 10.215388 -62.630333 -24.909306 -21.744751 -82.262733 1.613492 4.783852 4.821021 -5.704619 -3.741993 -2.280169 17.989988 8.673663 47.737263 -1.612754 -1.713761 77.468185 -2.602872 24.941164 -0.164645 -6.344529 -3.537583 9.086588 14.936015 9.807028 31.000982 5.064046 3.007279 -18.646166 1.346585 -8.173561 -53.835541 -10.907442 -14.154528 101.838905 -3.945247 -0.461219 14.633905 0.901570 6.687848 
-21.557074 47.806263 28.655293 17.570549 -11.494556 -121.864098 0.000000 0.000000 0.000000 7.639973 5.275288 -7.261566 8.365586 2.921403 -8.072801 -25.355778 3.744588 -3.553351 -11.962096 5.937421 8.300691 -60.206203 -27.659979 -20.117296 -81.763290 1.787276 5.011778 3.766255 -5.341081 -3.652053 -1.630438 17.269011 6.890384 48.602562 -3.930197 -3.547636 78.871826 -2.592083 24.526402 -0.760768 -6.272903 -3.524278 7.593250 13.842415 8.821751 31.517986 4.555845 2.447158 -19.352100 1.371107 -7.936541 -45.816853 -11.004454 -11.852209 92.717201 -2.861664 -2.649829 14.645954 0.862632 6.598639 
